<svg xmlns="http://www.w3.org/2000/svg" viewBox="0 0 17.727 15.052">
  <defs>
    <style>
      .cls-1 {
        fill: #141740;
        opacity: 0.5;
      }
    </style>
  </defs>
  <path id="send" class="cls-1" d="M.595,15.052a.594.594,0,0,1-.54-.837L3.1,7.53.055.845A.6.6,0,0,1,.076.3.594.594,0,0,1,.529,0L.588,0a.594.594,0,0,1,.23.047L17.359,6.979A.6.6,0,0,1,17.3,8.1l-.018.006-.008,0-.006,0-.023.008L.818,15.008A.576.576,0,0,1,.595,15.052ZM4.117,8.124h0L1.753,13.33,14.171,8.124H4.117Zm-2.369-6.4L4.117,6.935H14.184L1.748,1.724Z" transform="translate(0)"/>
</svg>
